HIERARCHY
ROOT Hips
{
    OFFSET 0.000000 97.120003 0.000000
    CHANNELS 6 Xposition Yposition Zposition Yrotation Xrotation Zrotation
    JOINT RightUpLeg
    {
        OFFSET -11.000000 0.000000 0.000000
        CHANNELS 3 Yrotation Xrotation Zrotation
        JOINT RightLeg
        {
            OFFSET 0.000000 -45.062000 0.000000
            CHANNELS 3 Yrotation Xrotation Zrotation
            JOINT RightFoot
            {
                OFFSET 0.000000 -42.057999 0.000000
                CHANNELS 3 Yrotation Xrotation Zrotation
                JOINT RightToeBase
                {
                    OFFSET 0.000000 -10.000000 15.120000
                    CHANNELS 3 Yrotation Xrotation Zrotation
                    End Site
                    {
                        OFFSET 0.000000 0.000000 6.480000
                    }
                }
            }
        }
    }
    JOINT LeftUpLeg
    {
        OFFSET 11.000000 0.000000 0.000000
        CHANNELS 3 Yrotation Xrotation Zrotation
        JOINT LeftLeg
        {
            OFFSET 0.000000 -45.062000 0.000000
            CHANNELS 3 Yrotation Xrotation Zrotation
            JOINT LeftFoot
            {
                OFFSET 0.000000 -42.057999 0.000000
                CHANNELS 3 Yrotation Xrotation Zrotation
                JOINT LeftToeBase
                {
                    OFFSET 0.000000 -10.000000 15.120000
                    CHANNELS 3 Yrotation Xrotation Zrotation
                    End Site
                    {
                        OFFSET 0.000000 0.000000 6.480000
                    }
                }
            }
        }
    }
    JOINT Spine
    {
        OFFSET 0.000000 8.120003 0.000000
        CHANNELS 3 Yrotation Xrotation Zrotation
        JOINT Spine1
        {
            OFFSET 0.000000 17.979996 0.000000
            CHANNELS 3 Yrotation Xrotation Zrotation
            JOINT Spine2
            {
                OFFSET 0.000000 12.759995 0.000000
                CHANNELS 3 Yrotation Xrotation Zrotation
                JOINT Neck
                {
                    OFFSET 0.000000 19.139999 0.000000
                    CHANNELS 3 Yrotation Xrotation Zrotation
                    JOINT Head
                    {
                        OFFSET 0.000000 8.500000 0.000000
                        CHANNELS 3 Yrotation Xrotation Zrotation
                        End Site
                        {
                            OFFSET 0.000000 19.119995 0.000000
                        }
                    }
                }
                JOINT RightShoulder
                {
                    OFFSET -6.564614 13.339996 0.000000
                    CHANNELS 3 Yrotation Xrotation Zrotation
                    JOINT RightArm
                    {
                        OFFSET -12.435387 0.000000 0.000000
                        CHANNELS 3 Yrotation Xrotation Zrotation
                        JOINT RightForeArm
                        {
                            OFFSET -28.000000 0.000000 0.000000
                            CHANNELS 3 Yrotation Xrotation Zrotation
                            JOINT RightHand
                            {
                                OFFSET -26.000000 0.000000 0.000000
                                CHANNELS 3 Yrotation Xrotation Zrotation
                                JOINT RightHandThumb1
                                {
                                    OFFSET -1.936996 -0.483994 2.518000
                                    CHANNELS 3 Yrotation Xrotation Zrotation
                                    JOINT RightHandThumb2
                                    {
                                        OFFSET -3.389648 -1.002151 1.580621
                                        CHANNELS 3 Yrotation Xrotation Zrotation
                                        JOINT RightHandThumb3
                                        {
                                            OFFSET -2.687950 0.058136 0.087317
                                            CHANNELS 3 Yrotation Xrotation Zrotation
                                            End Site
                                            {
                                                OFFSET -2.535072 0.054840 0.082351
                                            }
                                        }
                                    }
                                }
                                JOINT RightHandIndex1
                                {
                                    OFFSET -8.874001 0.439011 3.131000
                                    CHANNELS 3 Yrotation Xrotation Zrotation
                                    JOINT RightHandIndex2
                                    {
                                        OFFSET -3.806000 0.000000 0.000000
                                        CHANNELS 3 Yrotation Xrotation Zrotation
                                        JOINT RightHandIndex3
                                        {
                                            OFFSET -2.157997 0.000000 0.000000
                                            CHANNELS 3 Yrotation Xrotation Zrotation
                                            End Site
                                            {
                                                OFFSET -1.898003 0.000000 0.000000
                                            }
                                        }
                                    }
                                }
                                JOINT RightHandMiddle1
                                {
                                    OFFSET -8.997002 0.456009 1.126000
                                    CHANNELS 3 Yrotation Xrotation Zrotation
                                    JOINT RightHandMiddle2
                                    {
                                        OFFSET -4.153000 0.000000 0.000000
                                        CHANNELS 3 Yrotation Xrotation Zrotation
                                        JOINT RightHandMiddle3
                                        {
                                            OFFSET -2.602997 0.000000 0.000000
                                            CHANNELS 3 Yrotation Xrotation Zrotation
                                            End Site
                                            {
                                                OFFSET -2.075996 0.000000 0.000000
                                            }
                                        }
                                    }
                                }
                                JOINT RightHandRing1
                                {
                                    OFFSET -8.412003 0.542999 -0.640000
                                    CHANNELS 3 Yrotation Xrotation Zrotation
                                    JOINT RightHandRing2
                                    {
                                        OFFSET -3.619003 0.000000 0.000000
                                        CHANNELS 3 Yrotation Xrotation Zrotation
                                        JOINT RightHandRing3
                                        {
                                            OFFSET -2.511002 0.000000 0.000000
                                            CHANNELS 3 Yrotation Xrotation Zrotation
                                            End Site
                                            {
                                                OFFSET -1.952003 0.000000 0.000000
                                            }
                                        }
                                    }
                                }
                                JOINT RightHandPinky1
                                {
                                    OFFSET -7.677994 0.471008 -2.411000
                                    CHANNELS 3 Yrotation Xrotation Zrotation
                                    JOINT RightHandPinky2
                                    {
                                        OFFSET -2.898003 0.000000 0.000000
                                        CHANNELS 3 Yrotation Xrotation Zrotation
                                        JOINT RightHandPinky3
                                        {
                                            OFFSET -1.831001 0.000000 0.000000
                                            CHANNELS 3 Yrotation Xrotation Zrotation
                                            End Site
                                            {
                                                OFFSET -1.730003 0.000000 0.000000
                                            }
                                        }
                                    }
                                }
                            }
                        }
                    }
                }
                JOINT LeftShoulder
                {
                    OFFSET 6.564614 13.339996 0.000000
                    CHANNELS 3 Yrotation Xrotation Zrotation
                    JOINT LeftArm
                    {
                        OFFSET 12.435387 0.000000 0.000000
                        CHANNELS 3 Yrotation Xrotation Zrotation
                        JOINT LeftForeArm
                        {
                            OFFSET 28.000000 0.000000 0.000000
                            CHANNELS 3 Yrotation Xrotation Zrotation
                            JOINT LeftHand
                            {
                                OFFSET 26.000000 0.000000 0.000000
                                CHANNELS 3 Yrotation Xrotation Zrotation
                                JOINT LeftHandThumb1
                                {
                                    OFFSET 1.936996 -0.483994 2.518000
                                    CHANNELS 3 Yrotation Xrotation Zrotation
                                    JOINT LeftHandThumb2
                                    {
                                        OFFSET 3.416718 -1.002151 1.521220
                                        CHANNELS 3 Yrotation Xrotation Zrotation
                                        JOINT LeftHandThumb3
                                        {
                                            OFFSET 2.689072 0.058136 0.040391
                                            CHANNELS 3 Yrotation Xrotation Zrotation
                                            End Site
                                            {
                                                OFFSET 2.536118 0.054840 0.038095
                                            }
                                        }
                                    }
                                }
                                JOINT LeftHandIndex1
                                {
                                    OFFSET 8.874001 0.439011 3.131000
                                    CHANNELS 3 Yrotation Xrotation Zrotation
                                    JOINT LeftHandIndex2
                                    {
                                        OFFSET 3.806000 0.000000 0.000000
                                        CHANNELS 3 Yrotation Xrotation Zrotation
                                        JOINT LeftHandIndex3
                                        {
                                            OFFSET 2.157997 0.000000 0.000000
                                            CHANNELS 3 Yrotation Xrotation Zrotation
                                            End Site
                                            {
                                                OFFSET 1.898003 0.000000 0.000000
                                            }
                                        }
                                    }
                                }
                                JOINT LeftHandMiddle1
                                {
                                    OFFSET 8.997002 0.456009 1.126000
                                    CHANNELS 3 Yrotation Xrotation Zrotation
                                    JOINT LeftHandMiddle2
                                    {
                                        OFFSET 4.153000 0.000000 0.000000
                                        CHANNELS 3 Yrotation Xrotation Zrotation
                                        JOINT LeftHandMiddle3
                                        {
                                            OFFSET 2.602997 0.000000 0.000000
                                            CHANNELS 3 Yrotation Xrotation Zrotation
                                            End Site
                                            {
                                                OFFSET 2.075996 0.000000 0.000000
                                            }
                                        }
                                    }
                                }
                                JOINT LeftHandRing1
                                {
                                    OFFSET 8.412003 0.542999 -0.640000
                                    CHANNELS 3 Yrotation Xrotation Zrotation
                                    JOINT LeftHandRing2
                                    {
                                        OFFSET 3.619003 0.000000 0.000000
                                        CHANNELS 3 Yrotation Xrotation Zrotation
                                        JOINT LeftHandRing3
                                        {
                                            OFFSET 2.511002 0.000000 0.000000
                                            CHANNELS 3 Yrotation Xrotation Zrotation
                                            End Site
                                            {
                                                OFFSET 1.952003 0.000000 0.000000
                                            }
                                        }
                                    }
                                }
                                JOINT LeftHandPinky1
                                {
                                    OFFSET 7.677994 0.471008 -2.411000
                                    CHANNELS 3 Yrotation Xrotation Zrotation
                                    JOINT LeftHandPinky2
                                    {
                                        OFFSET 2.898003 0.000000 0.000000
                                        CHANNELS 3 Yrotation Xrotation Zrotation
                                        JOINT LeftHandPinky3
                                        {
                                            OFFSET 1.831001 0.000000 0.000000
                                            CHANNELS 3 Yrotation Xrotation Zrotation
                                            End Site
                                            {
                                                OFFSET 1.730003 0.000000 0.000000
                                            }
                                        }
                                    }
                                }
                            }
                        }
                    }
                }
            }
        }
    }
}
MOTION
Frames: 4
Frame Time: 0.011111
-31.048702 95.474251 -37.755676 163.203445 171.803680 169.894852 4.659574 -10.817013 4.426633 156.493530 171.962082 -163.809769 11.844274 1.688839 -0.812307 0.000000 0.000000 0.000000 3.781806 -28.145824 26.288725 173.121445 134.198593 178.605560 171.900681 178.589844 -174.572189 0.000000 0.000000 0.000000 2.782109 -1.825887 -5.566737 2.759170 -1.609387 -9.207474 12.112794 2.882398 -11.661304 179.999985 172.780182 178.217072 39.344028 13.266496 6.857306 176.612915 174.785217 -173.138977 27.956469 -6.878588 61.560196 29.015001 -11.137703 11.800389 11.807705 29.043283 10.329530 9.632618 38.841816 -25.436619 116.179306 -118.857178 -89.812164 172.015503 -179.835938 -179.909073 15.000034 -0.000028 35.001801 0.000033 -0.000010 28.637831 0.000020 -0.000002 20.046476 0.000019 -0.000024 34.315845 0.000026 -0.000013 34.315830 0.000024 -0.000001 22.854340 170.000015 -179.999969 -140.482132 0.000028 -0.000014 39.517857 0.000023 0.000007 26.318893 160.000015 -179.999985 -139.092041 0.000037 -0.000018 61.361866 0.000017 0.000017 40.867035 170.607162 172.353973 177.011169 170.193909 -179.268814 105.742554 6.415164 -30.573385 -10.845360 173.765198 -154.848053 -178.635681 150.423248 137.238602 -175.002625 64.874168 -60.875721 -90.247086 8.828357 -0.182255 -0.098805 164.999756 -179.999954 154.885773 179.999817 179.999954 159.451996 179.999847 179.999908 165.616394 0.000082 0.000022 -34.641445 0.000076 -0.000025 -34.641434 0.000030 -0.000046 -23.071203 10.000037 0.000007 -32.521790 0.000030 0.000002 -32.521805 0.000011 -0.000022 -21.659506 19.999989 -0.000013 -37.930485 179.999969 179.999985 123.104324 179.999985 179.999985 142.107468
-31.210569 95.432495 -37.810932 163.316544 171.844971 169.954880 4.566347 -10.814694 4.440371 156.534729 171.900787 -163.802109 11.867900 1.700473 -0.771768 0.000000 0.000000 0.000000 3.800110 -28.144045 26.363968 172.949982 134.183868 178.519653 171.890121 178.622452 -174.614807 0.000000 0.000000 0.000000 2.791826 -1.844367 -5.575857 2.768740 -1.626624 -9.221766 12.149870 2.890962 -11.679060 179.999985 172.748032 178.212891 39.412399 13.314440 6.907194 176.634079 174.831894 -173.133575 28.093470 -6.971169 61.407444 29.223650 -11.293928 11.924056 11.847023 29.064531 10.348112 9.561073 38.861763 -25.379215 116.176926 -118.920372 -89.809471 171.973419 -179.835114 -179.908539 15.000016 -0.000021 35.047890 0.000006 -0.000005 28.675545 180.000000 179.999985 -159.927124 0.000008 -0.000008 34.350010 0.000019 -0.000008 34.350010 0.000016 -0.000006 22.877096 170.000000 -179.999985 -140.439651 0.000014 -0.000002 39.560345 0.000015 0.000003 26.347189 160.000000 -179.999985 -139.062653 0.000006 -0.000003 61.405994 0.000013 0.000004 40.896412 170.597687 172.372772 176.996399 170.093597 -179.159515 105.829926 6.446238 -30.092686 -10.575863 173.850403 -155.045380 -178.343704 150.918945 136.905548 -174.948120 64.881569 -60.671211 -90.255348 8.964547 -0.185024 -0.100440 164.999878 -179.999985 154.628372 179.999939 179.999985 159.241394 179.999985 179.999969 165.468979 0.000091 0.000021 -34.563107 0.000083 -0.000038 -34.563126 0.000032 -0.000056 -23.019043 10.000051 0.000008 -32.486465 0.000049 -0.000021 -32.486473 0.000017 -0.000018 -21.635994 19.999983 -0.000003 -37.966499 0.000007 0.000008 -56.949791 0.000014 0.000012 -37.928555
-31.375889 95.390854 -37.867729 163.434372 171.885941 170.013855 4.421119 -10.806442 4.470438 156.497879 171.828064 -163.808472 11.998278 1.738804 -0.743106 0.000000 0.000000 0.000000 3.791496 -28.142267 26.446898 172.661118 134.170258 178.366348 171.947495 178.651337 -174.688461 0.000000 0.000000 0.000000 2.800692 -1.863492 -5.583427 2.777489 -1.644586 -9.233474 12.183194 2.896709 -11.694050 179.999985 172.713318 178.209167 39.484257 13.365515 6.961916 176.659134 174.876160 -173.127319 28.201059 -7.057491 61.263599 29.451506 -11.413290 12.051923 11.878523 29.091818 10.364714 9.492888 38.875877 -25.326025 116.174500 -118.980011 -89.806534 171.933716 -179.834244 -179.907867 15.000147 -0.000207 35.096695 0.000191 -0.000081 28.715446 0.000127 0.000031 20.100859 0.000111 -0.000150 34.386738 0.000178 -0.000067 34.386768 0.000112 0.000036 22.901600 170.000137 -179.999786 -140.397949 0.000239 -0.000083 39.602058 0.000158 0.000062 26.374977 160.000076 -179.999847 -139.032867 0.000226 -0.000088 61.450706 0.000127 0.000115 40.926174 170.587036 172.395035 176.980713 170.006790 -179.053009 105.932640 6.497915 -29.632421 -10.349932 173.944427 -155.276794 -178.083038 151.533615 136.896286 -174.783142 64.893883 -60.420830 -90.265404 9.131276 -0.189832 -0.100750 165.001495 179.999741 154.263367 0.001190 -0.000337 -21.057213 0.000711 -0.000518 -14.740069 0.008025 0.001511 -34.611870 0.007486 -0.003224 -34.611881 0.002912 -0.004587 -23.051504 10.005139 0.001075 -32.581757 0.004905 -0.001833 -32.581684 0.002108 -0.002778 -21.699421 20.001730 0.000416 -38.132561 0.002414 -0.001115 -57.198799 0.000259 -0.001746 -38.094387
-31.530043 95.354156 -37.907974 163.537674 171.935883 170.083069 4.306082 -10.797656 4.491771 156.612839 171.740356 -163.831802 11.941353 1.723908 -0.701680 0.000000 0.000000 0.000000 3.771170 -28.107492 26.532700 172.499481 134.132828 178.187256 171.928787 178.711884 -174.696396 0.000000 0.000000 0.000000 2.806018 -1.881772 -5.589338 2.782733 -1.662019 -9.242516 12.201066 2.896762 -11.706898 179.999985 172.683884 178.211304 39.591190 13.397879 7.025945 176.687637 174.921982 -173.117859 28.387449 -7.154086 61.107723 29.597658 -11.538883 12.184734 11.908630 29.143728 10.392282 9.404905 38.824825 -25.299511 116.172501 -119.037659 -89.804321 171.895309 -179.833511 -179.907455 15.000069 -0.000096 35.136616 0.000089 -0.000037 28.748119 0.000065 0.000014 20.123688 0.000049 -0.000065 34.417099 0.000075 -0.000023 34.417088 0.000040 0.000009 22.921770 170.000092 -179.999878 -140.358536 0.000119 -0.000042 39.641411 0.000093 0.000023 26.401201 160.000061 -179.999878 -139.011169 0.000174 -0.000062 61.483246 0.000084 0.000087 40.947834 170.570129 172.422867 176.951233 169.852646 -179.061188 106.063301 6.591226 -28.896389 -10.056828 173.961258 -155.186005 -177.993652 152.178192 136.684265 -174.136810 64.893677 -60.473415 -90.261429 9.096281 -0.189978 -0.098207 165.004532 179.999268 154.182953 0.003618 -0.001062 -21.123055 0.002095 -0.001602 -14.786113 0.009982 0.001764 -34.127937 0.009300 -0.004029 -34.127934 0.003671 -0.005666 -22.729198 10.007364 0.001430 -32.311886 0.007010 -0.002659 -32.311871 0.003036 -0.003977 -21.519701 20.003269 0.000731 -38.096153 0.004531 -0.002129 -57.144173 0.000466 -0.003300 -38.058067
